<svg xmlns="http://www.w3.org/2000/svg" fill="none" viewBox="0 0 126 52.01">
  <g fill="currentColor" clip-path="url(#a)">
    <path d="M34.944 44.256c0 3.09-2.148 5.16-5.34 5.16-3.193 0-5.392-2.077-5.392-5.16V31.761h-3.044v12.606c0 4.57 3.392 7.64 8.442 7.64 5.05 0 8.417-3.07 8.417-7.64V31.76h-3.07v12.495h-.013zM62.11 31.625h-3.231l-6.843 15.117-6.837-15.046-.032-.072h-3.238l-1.258 20.11h3.07l.807-14.54 6.559 14.468.032.072h1.767l6.618-14.592.8 14.592h3.05l-1.258-20-.006-.11zM101.491 46.444L88.624 31.76h-1.947v19.973h3.07l-.052-14.69 12.841 14.69h1.948V31.76h-3.076l.083 14.683zM14.815 46.444L1.948 31.76H0v19.973h3.07l-.052-14.69 12.842 14.69h1.947V31.76h-3.07l.078 14.683zM75.228 35.675l.04.097 3.682 8.79h-.013l1.077 2.583h.013l1.91 4.589h3.25l-8.552-19.902-.033-.071h-2.78L65.22 51.734h3.276l6.688-15.962.045-.097zM116.042 35.675l3.721 8.886h-.013l1.077 2.584h.013l1.909 4.589H126l-8.552-19.902-.032-.071h-2.78l-8.604 19.973h3.276l6.734-16.059zM48.837 18.37a1.472 1.472 0 01.361-2.48 1.439 1.439 0 011.477.22 1.472 1.472 0 01-.361 2.48 1.439 1.439 0 01-1.477-.22zM50.688 13.865a1.666 1.666 0 01-.549-.824 1.718 1.718 0 011.136-2.143 1.682 1.682 0 011.58.319c.258.214.451.5.548.83.27.91-.232 1.87-1.135 2.143a1.682 1.682 0 01-1.58-.319M53.235 9.107a2.012 2.012 0 01.877-3.518 1.988 1.988 0 011.658.415 2.013 2.013 0 01-.87 3.518 1.988 1.988 0 01-1.658-.415M56.596 4.141a2.332 2.332 0 01-.839-1.57A2.326 2.326 0 0157.827.02a2.297 2.297 0 011.697.512c.477.396.774.955.838 1.571a2.326 2.326 0 01-2.07 2.551 2.325 2.325 0 01-1.697-.513zM44.219 16.877a1.746 1.746 0 01-.703-.701 1.725 1.725 0 01.696-2.324 1.692 1.692 0 011.613 0c.296.162.541.402.696.701.445.837.136 1.882-.696 2.324a1.692 1.692 0 01-1.613 0M45.799 11.703a1.974 1.974 0 01-.903-1c-.42-1.018.058-2.2 1.077-2.622a1.96 1.96 0 011.703.085c.413.22.722.564.903 1 .419 1.018-.058 2.2-1.077 2.622a1.96 1.96 0 01-1.703-.085zM48.134 6.18a2.3 2.3 0 01-1.13-1.377 2.333 2.333 0 011.542-2.908 2.277 2.277 0 011.761.17c.548.291.948.778 1.122 1.375a2.334 2.334 0 01-1.535 2.908 2.25 2.25 0 01-1.76-.175M39.007 15.715a2.015 2.015 0 01-.529-3.59 1.974 1.974 0 011.69-.253 2.015 2.015 0 01.529 3.59 1.97 1.97 0 01-1.69.253zM40.226 9.84a2.282 2.282 0 01-1.367-1.129c-.6-1.13-.18-2.545.942-3.148a2.279 2.279 0 011.76-.175 2.281 2.281 0 011.368 1.129c.6 1.13.18 2.545-.942 3.148a2.285 2.285 0 01-1.76.175zM33.183 14.981a2.288 2.288 0 01-1.56-.837 2.338 2.338 0 01.316-3.278 2.285 2.285 0 011.69-.52 2.289 2.289 0 011.56.838c.813.993.67 2.46-.316 3.278a2.293 2.293 0 01-1.696.52M94.061 12.34a2.36 2.36 0 01-.51 1.707 2.304 2.304 0 01-3.256.324 2.331 2.331 0 01-.839-1.57 2.322 2.322 0 012.07-2.551 2.296 2.296 0 011.697.512c.477.396.774.954.838 1.571M87.567 13.527a1.994 1.994 0 01-3.09 1.87 2.007 2.007 0 01-.877-1.474 2 2 0 011.593-2.168 1.995 1.995 0 012.373 1.772zM81.846 15.137c.032.338-.032.675-.194.974a1.7 1.7 0 01-2.309.707 1.724 1.724 0 01.303-3.16c.44-.137.897-.092 1.303.129.503.273.839.772.897 1.35zM76.86 17.059c.026.24-.013.473-.103.7a1.444 1.444 0 01-1.89.793 1.456 1.456 0 01-.89-1.208c-.026-.24.013-.474.103-.7a1.442 1.442 0 011.89-.793c.497.208.839.669.89 1.208zM72.565 19.2c.013.163 0 .319-.045.474a1.213 1.213 0 01-2.374-.233c-.02-.156 0-.318.045-.474a1.24 1.24 0 01.587-.727c.284-.156.613-.188.929-.09.47.142.813.557.858 1.05zM68.895 21.479c.006.097 0 .201-.013.299-.11.551-.638.908-1.18.798a1.018 1.018 0 01-.793-1.194 1.004 1.004 0 011.18-.805c.432.084.76.454.806.896M65.812 23.829v.162a.82.82 0 01-1.632.006v-.162a.826.826 0 01.297-.558.801.801 0 01.6-.182c.387.04.696.35.735.734zM63.252 26.192v.064a.646.646 0 01-1.29.071v-.064c0-.364.29-.656.651-.656.336 0 .613.253.645.585M86.47 6.868a2.32 2.32 0 01-.174 1.772 2.306 2.306 0 01-3.128.96 2.268 2.268 0 01-1.122-1.376 2.32 2.32 0 01.174-1.772c.29-.545.774-.948 1.367-1.13a2.306 2.306 0 012.89 1.546M80.324 9.302c.135.448.116.915-.065 1.35a1.991 1.991 0 01-3.753-.182 2.02 2.02 0 011.142-2.44 1.953 1.953 0 011.528 0 1.99 1.99 0 011.148 1.272zM75.029 12.008c.096.325.096.669 0 .994a1.707 1.707 0 11-3.27-.987c.129-.441.425-.798.825-1.02.4-.213.864-.259 1.303-.129.548.169.974.597 1.142 1.143zM70.514 14.871c.07.234.077.467.032.707a1.453 1.453 0 01-1.703 1.15 1.454 1.454 0 01-1.135-1.714c.078-.383.29-.714.613-.928.323-.215.71-.293 1.084-.221.528.104.948.493 1.109 1.006zM66.715 17.818c.045.156.064.312.045.474a1.223 1.223 0 01-1.329 1.103 1.213 1.213 0 01-1.044-.863c-.046-.156-.065-.311-.046-.474a1.216 1.216 0 011.33-1.097c.49.046.902.383 1.044.864M63.561 20.771c.026.098.045.195.045.293a1.02 1.02 0 01-1.006 1.019 1.017 1.017 0 01-.006-2.032c.438 0 .838.292.967.714M60.988 23.68a.826.826 0 01-.703 1.065.82.82 0 01-.865-.579c-.012-.052-.025-.104-.032-.162a.842.842 0 01.18-.604.805.805 0 01.556-.298.826.826 0 01.864.578zM77.957 2.986a2.32 2.32 0 01.174 1.772 2.317 2.317 0 01-2.883 1.558 2.282 2.282 0 01-1.368-1.13 2.326 2.326 0 01-.174-1.772 2.29 2.29 0 011.123-1.376 2.28 2.28 0 011.76-.175 2.282 2.282 0 011.368 1.13M72.41 6.582c.22.415.29.876.2 1.337a1.993 1.993 0 01-3.715.558 2.006 2.006 0 01-.2-1.337c.103-.526.4-.98.845-1.279.438-.298.974-.402 1.496-.298.587.117 1.09.487 1.374 1.019zM67.74 10.269a1.715 1.715 0 01-1.67 2.518 1.693 1.693 0 01-1.341-.902 1.702 1.702 0 01-.194-.973c.045-.455.264-.87.613-1.162a1.683 1.683 0 011.251-.383c.568.052 1.07.39 1.341.902zM63.864 13.969c.11.214.168.441.168.688 0 .805-.645 1.46-1.445 1.46a1.453 1.453 0 01-1.45-1.46c0-.39.147-.753.425-1.032.27-.28.638-.429 1.025-.429.536 0 1.026.293 1.284.773h-.007zM60.704 17.604c.077.143.123.292.135.454a1.232 1.232 0 01-1.09 1.344 1.204 1.204 0 01-1.193-.643 1.125 1.125 0 01-.135-.454 1.219 1.219 0 01.27-.896c.207-.253.497-.409.82-.441a1.21 1.21 0 011.193.636zM58.182 21.122c.045.09.078.182.097.28a1.014 1.014 0 01-.787 1.194 1.011 1.011 0 01-1.038-1.552.977.977 0 01.638-.428c.432-.091.877.123 1.084.512M68.863.85a2.32 2.32 0 01.516 1.701 2.32 2.32 0 01-2.529 2.09 2.328 2.328 0 01-2.077-2.545 2.312 2.312 0 01.833-1.57 2.286 2.286 0 011.69-.52 2.289 2.289 0 011.56.838M64.116 5.466c.296.363.451.798.451 1.272a2.01 2.01 0 01-1.993 2.012c-.6 0-1.16-.266-1.541-.733a1.991 1.991 0 01-.452-1.273c0-.538.207-1.038.58-1.421a1.979 1.979 0 012.947.143M60.246 10.003c.213.26.342.578.38.922a1.72 1.72 0 01-1.528 1.882 1.71 1.71 0 01-1.87-1.538c-.046-.455.09-.903.38-1.26.29-.357.697-.577 1.148-.623a1.704 1.704 0 011.49.617zM57.163 14.39a1.47 1.47 0 01-.838 2.356 1.443 1.443 0 01-1.406-.505 1.461 1.461 0 01.832-2.356 1.439 1.439 0 011.406.506M54.777 18.57a1.227 1.227 0 01-.58 1.947c-.472.144-.981-.005-1.297-.395a1.266 1.266 0 01-.226-.422 1.234 1.234 0 01.806-1.532c.471-.142.98.007 1.297.39"/>
  </g>
  <defs>
    <clipPath id="a">
      <path fill="currentColor" d="M0 0h126v52H0z"/>
    </clipPath>
  </defs>
</svg>
