<?xml version="1.0" encoding="UTF-8" standalone="no"?>
<!-- Created with Inkscape (http://www.inkscape.org/) -->

<svg
   width="69.242943mm"
   height="60.087643mm"
   viewBox="0 0 69.242943 60.087643"
   version="1.1"
   id="svg1"
   inkscape:version="1.4.2 (f4327f4, 2025-05-13)"
   sodipodi:docname="UPEI wordmark.svg"
   xmlns:inkscape="http://www.inkscape.org/namespaces/inkscape"
   xmlns:sodipodi="http://sodipodi.sourceforge.net/DTD/sodipodi-0.dtd"
   xmlns="http://www.w3.org/2000/svg"
   xmlns:svg="http://www.w3.org/2000/svg">
  <sodipodi:namedview
     id="namedview1"
     pagecolor="#ffffff"
     bordercolor="#000000"
     borderopacity="0.25"
     inkscape:showpageshadow="2"
     inkscape:pageopacity="0.0"
     inkscape:pagecheckerboard="0"
     inkscape:deskcolor="#d1d1d1"
     inkscape:document-units="mm"
     inkscape:zoom="1.0396254"
     inkscape:cx="-122.64033"
     inkscape:cy="200.553"
     inkscape:window-width="2560"
     inkscape:window-height="1369"
     inkscape:window-x="-8"
     inkscape:window-y="-8"
     inkscape:window-maximized="1"
     inkscape:current-layer="layer1" />
  <defs
     id="defs1">
    <clipPath
       clipPathUnits="userSpaceOnUse"
       id="clipPath584">
      <path
         d="M 0,0 H 792 V 612 H 0 Z"
         transform="matrix(1.3333333,0,0,-1.3333333,0,816)"
         id="path584" />
    </clipPath>
    <clipPath
       clipPathUnits="userSpaceOnUse"
       id="clipPath582">
      <path
         d="m 36,320.28 h 49.716 v 43.2 H 36 Z"
         transform="translate(-53.450602,-362.79881)"
         id="path582" />
    </clipPath>
    <clipPath
       clipPathUnits="userSpaceOnUse"
       id="clipPath586">
      <path
         d="M 0,0 H 792 V 612 H 0 Z"
         transform="translate(-53.450602,-362.79881)"
         id="path586" />
    </clipPath>
    <clipPath
       clipPathUnits="userSpaceOnUse"
       id="clipPath588">
      <path
         d="M 0,0 H 792 V 612 H 0 Z"
         transform="translate(-58.194701,-354.21911)"
         id="path588" />
    </clipPath>
    <clipPath
       clipPathUnits="userSpaceOnUse"
       id="clipPath590">
      <path
         d="M 0,0 H 792 V 612 H 0 Z"
         transform="translate(-78.463299,-350.16181)"
         id="path590" />
    </clipPath>
    <clipPath
       clipPathUnits="userSpaceOnUse"
       id="clipPath592">
      <path
         d="M 0,0 H 792 V 612 H 0 Z"
         transform="translate(-78.700404,-346.36291)"
         id="path592" />
    </clipPath>
    <clipPath
       clipPathUnits="userSpaceOnUse"
       id="clipPath594">
      <path
         d="M 0,0 H 792 V 612 H 0 Z"
         transform="translate(-44.043601,-343.31121)"
         id="path594" />
    </clipPath>
    <clipPath
       clipPathUnits="userSpaceOnUse"
       id="clipPath596">
      <path
         d="M 0,0 H 792 V 612 H 0 Z"
         transform="translate(-50.284201,-343.31121)"
         id="path596" />
    </clipPath>
    <clipPath
       clipPathUnits="userSpaceOnUse"
       id="clipPath598">
      <path
         d="M 0,0 H 792 V 612 H 0 Z"
         transform="translate(-50.637601,-338.24301)"
         id="path598" />
    </clipPath>
    <clipPath
       clipPathUnits="userSpaceOnUse"
       id="clipPath600">
      <path
         d="M 0,0 H 792 V 612 H 0 Z"
         transform="translate(-58.908001,-343.31121)"
         id="path600" />
    </clipPath>
    <clipPath
       clipPathUnits="userSpaceOnUse"
       id="clipPath602">
      <path
         d="M 0,0 H 792 V 612 H 0 Z"
         transform="translate(-63.347902,-339.41441)"
         id="path602" />
    </clipPath>
    <clipPath
       clipPathUnits="userSpaceOnUse"
       id="clipPath604">
      <path
         d="M 0,0 H 792 V 612 H 0 Z"
         transform="translate(-65.431301,-340.72131)"
         id="path604" />
    </clipPath>
    <clipPath
       clipPathUnits="userSpaceOnUse"
       id="clipPath606">
      <path
         d="M 0,0 H 792 V 612 H 0 Z"
         transform="translate(-71.768902,-342.29921)"
         id="path606" />
    </clipPath>
    <clipPath
       clipPathUnits="userSpaceOnUse"
       id="clipPath608">
      <path
         d="M 0,0 H 792 V 612 H 0 Z"
         transform="translate(-72.572202,-338.24301)"
         id="path608" />
    </clipPath>
    <clipPath
       clipPathUnits="userSpaceOnUse"
       id="clipPath610">
      <path
         d="M 0,0 H 792 V 612 H 0 Z"
         transform="translate(-79.942404,-342.25131)"
         id="path610" />
    </clipPath>
    <clipPath
       clipPathUnits="userSpaceOnUse"
       id="clipPath612">
      <path
         d="M 0,0 H 792 V 612 H 0 Z"
         transform="translate(-85.2826,-343.31121)"
         id="path612" />
    </clipPath>
    <clipPath
       clipPathUnits="userSpaceOnUse"
       id="clipPath614">
      <path
         d="M 0,0 H 792 V 612 H 0 Z"
         transform="translate(-39.932501,-335.19101)"
         id="path614" />
    </clipPath>
    <clipPath
       clipPathUnits="userSpaceOnUse"
       id="clipPath616">
      <path
         d="M 0,0 H 792 V 612 H 0 Z"
         transform="translate(-41.576501,-335.23641)"
         id="path616" />
    </clipPath>
    <clipPath
       clipPathUnits="userSpaceOnUse"
       id="clipPath618">
      <path
         d="M 0,0 H 792 V 612 H 0 Z"
         transform="translate(-45.564001,-334.21911)"
         id="path618" />
    </clipPath>
    <clipPath
       clipPathUnits="userSpaceOnUse"
       id="clipPath620">
      <path
         d="M 0,0 H 792 V 612 H 0 Z"
         transform="translate(-49.251801,-334.40551)"
         id="path620" />
    </clipPath>
    <clipPath
       clipPathUnits="userSpaceOnUse"
       id="clipPath622">
      <path
         d="M 0,0 H 792 V 612 H 0 Z"
         transform="translate(-51.570301,-336.38281)"
         id="path622" />
    </clipPath>
    <clipPath
       clipPathUnits="userSpaceOnUse"
       id="clipPath624">
      <path
         d="M 0,0 H 792 V 612 H 0 Z"
         transform="translate(-54.783701,-332.26751)"
         id="path624" />
    </clipPath>
    <clipPath
       clipPathUnits="userSpaceOnUse"
       id="clipPath626">
      <path
         d="M 0,0 H 792 V 612 H 0 Z"
         transform="translate(-59.117401,-332.85161)"
         id="path626" />
    </clipPath>
    <clipPath
       clipPathUnits="userSpaceOnUse"
       id="clipPath628">
      <path
         d="M 0,0 H 792 V 612 H 0 Z"
         transform="translate(-60.844402,-334.91901)"
         id="path628" />
    </clipPath>
    <clipPath
       clipPathUnits="userSpaceOnUse"
       id="clipPath630">
      <path
         d="M 0,0 H 792 V 612 H 0 Z"
         transform="translate(-67.395701,-333.21131)"
         id="path630" />
    </clipPath>
    <clipPath
       clipPathUnits="userSpaceOnUse"
       id="clipPath632">
      <path
         d="M 0,0 H 792 V 612 H 0 Z"
         transform="translate(-70.079802,-334.57881)"
         id="path632" />
    </clipPath>
    <clipPath
       clipPathUnits="userSpaceOnUse"
       id="clipPath634">
      <path
         d="M 0,0 H 792 V 612 H 0 Z"
         transform="translate(-76.047504,-334.93181)"
         id="path634" />
    </clipPath>
    <clipPath
       clipPathUnits="userSpaceOnUse"
       id="clipPath636">
      <path
         d="M 0,0 H 792 V 612 H 0 Z"
         transform="translate(-77.805504,-333.79541)"
         id="path636" />
    </clipPath>
    <clipPath
       clipPathUnits="userSpaceOnUse"
       id="clipPath638">
      <path
         d="M 0,0 H 792 V 612 H 0 Z"
         transform="translate(-80.225005,-334.40551)"
         id="path638" />
    </clipPath>
    <clipPath
       clipPathUnits="userSpaceOnUse"
       id="clipPath640">
      <path
         d="M 0,0 H 792 V 612 H 0 Z"
         transform="translate(-83.8429,-334.57881)"
         id="path640" />
    </clipPath>
    <clipPath
       clipPathUnits="userSpaceOnUse"
       id="clipPath642">
      <path
         d="M 0,0 H 792 V 612 H 0 Z"
         transform="translate(-38.641001,-320.85681)"
         id="path642" />
    </clipPath>
    <clipPath
       clipPathUnits="userSpaceOnUse"
       id="clipPath644">
      <path
         d="M 0,0 H 792 V 612 H 0 Z"
         transform="translate(-48.194301,-328.32531)"
         id="path644" />
    </clipPath>
    <clipPath
       clipPathUnits="userSpaceOnUse"
       id="clipPath646">
      <path
         d="M 0,0 H 792 V 612 H 0 Z"
         transform="translate(-56.232802,-323.02831)"
         id="path646" />
    </clipPath>
    <clipPath
       clipPathUnits="userSpaceOnUse"
       id="clipPath648">
      <path
         d="M 0,0 H 792 V 612 H 0 Z"
         transform="translate(-60.536702,-328.78011)"
         id="path648" />
    </clipPath>
    <clipPath
       clipPathUnits="userSpaceOnUse"
       id="clipPath650">
      <path
         d="M 0,0 H 792 V 612 H 0 Z"
         transform="translate(-75.669002,-330.18881)"
         id="path650" />
    </clipPath>
    <clipPath
       clipPathUnits="userSpaceOnUse"
       id="clipPath652">
      <path
         d="M 0,0 H 792 V 612 H 0 Z"
         transform="translate(-78.143304,-322.60281)"
         id="path652" />
    </clipPath>
  </defs>
  <g
     inkscape:label="图层 1"
     inkscape:groupmode="layer"
     id="layer1"
     transform="translate(-137.5464,-95.471288)">
    <g
       id="group-MC4"
       transform="matrix(1.0583333,0,0,1.0583333,86.31093,-255.65393)">
      <g
         id="g583"
         clip-path="url(#clipPath584)">
        <path
           d="M 0,0 C -1.581,-0.181 -2.056,-0.491 -2.161,-1.731 -2.214,-2.378 -2.293,-3.54 -2.293,-5.84 v -2.585 c 0,-2.894 -0.422,-5.039 -1.871,-6.59 -1.134,-1.188 -2.794,-1.731 -4.56,-1.731 -1.45,0 -2.926,0.362 -3.954,1.163 -1.634,1.24 -2.293,3.179 -2.293,6.021 v 6.745 c 0,2.533 -0.211,2.61 -2.109,2.817 v 0.31 h 6.3 V 0 c -1.924,-0.103 -2.135,-0.336 -2.135,-2.817 v -6.099 c 0,-3.411 1.001,-6.77 5.008,-6.77 4.375,0 4.955,4.134 4.955,7.727 v 2.144 c 0,2.275 -0.053,3.437 -0.185,4.239 -0.131,1.111 -0.5,1.395 -2.319,1.576 V 0.31 H 0 Z"
           style="fill:#8a1f03;fill-opacity:1;fill-rule:nonzero;stroke:none"
           transform="matrix(1.3333333,0,0,-1.3333333,71.267467,332.26827)"
           clip-path="url(#clipPath582)"
           id="path583" />
      </g>
      <path
         id="path585"
         d="M 0,0 C -1.581,-0.181 -2.056,-0.491 -2.161,-1.731 -2.214,-2.378 -2.293,-3.54 -2.293,-5.84 v -2.585 c 0,-2.894 -0.422,-5.039 -1.871,-6.59 -1.134,-1.188 -2.794,-1.731 -4.56,-1.731 -1.45,0 -2.926,0.362 -3.954,1.163 -1.634,1.24 -2.293,3.179 -2.293,6.021 v 6.745 c 0,2.533 -0.211,2.61 -2.109,2.817 v 0.31 h 6.3 V 0 c -1.924,-0.103 -2.135,-0.336 -2.135,-2.817 v -6.099 c 0,-3.411 1.001,-6.77 5.008,-6.77 4.375,0 4.955,4.134 4.955,7.727 v 2.144 c 0,2.275 -0.053,3.437 -0.185,4.239 -0.131,1.111 -0.5,1.395 -2.319,1.576 V 0.31 H 0 Z"
         style="fill:none;stroke:#8a1f03;stroke-width:0.124;stroke-linecap:butt;stroke-linejoin:miter;stroke-miterlimit:4;stroke-dasharray:none;stroke-opacity:1"
         transform="matrix(1.3333333,0,0,-1.3333333,71.267467,332.26827)"
         clip-path="url(#clipPath586)" />
      <path
         id="path587"
         d="m 0,0 c 0.343,-0.129 1.054,-0.258 1.819,-0.258 1.66,0 3.848,0.878 3.848,4.47 0,2.895 -1.713,4.213 -3.98,4.213 C 0.975,8.425 0.448,8.296 0.29,8.14 0.079,7.985 0,7.624 0,6.693 Z M 2.056,8.89 C 3.848,8.89 5.377,8.58 6.352,7.856 7.38,7.081 8.013,5.892 8.013,4.238 c 0,-3.359 -2.583,-4.91 -5.061,-5.22 -0.343,-0.052 -0.791,-0.052 -1.028,0 L 0,-0.465 v -4.548 c 0,-2.171 0.211,-2.352 2.319,-2.533 v -0.31 h -6.536 v 0.31 c 1.95,0.181 2.161,0.388 2.161,2.584 V 6.021 c 0,2.249 -0.184,2.43 -2.029,2.585 V 8.89 Z"
         style="fill:#8a1f03;fill-opacity:1;fill-rule:nonzero;stroke:#8a1f03;stroke-width:0.124;stroke-linecap:butt;stroke-linejoin:miter;stroke-miterlimit:4;stroke-dasharray:none;stroke-opacity:1"
         transform="matrix(1.3333333,0,0,-1.3333333,77.592933,343.70787)"
         clip-path="url(#clipPath588)" />
      <path
         id="path589"
         d="m 0,0 c -0.158,-0.853 -0.633,-2.868 -0.896,-3.799 h -12.019 v 0.31 c 2.293,0.181 2.504,0.388 2.504,2.61 V 9.872 c 0,2.455 -0.211,2.558 -2.109,2.765 v 0.31 h 11.097 c 0,-0.853 0.105,-2.507 0.184,-3.385 L -1.608,9.484 c -0.237,1.034 -0.501,1.654 -0.843,2.094 -0.501,0.671 -1.213,0.826 -3.348,0.826 h -1.766 c -0.738,0 -0.79,-0.103 -0.79,-0.801 V 5.169 h 2.609 c 2.425,0 2.557,0.335 2.847,1.964 h 0.316 V 2.455 h -0.316 c -0.29,1.757 -0.475,2.067 -2.794,2.067 h -2.662 v -5.349 c 0,-1.215 0.158,-1.731 0.58,-2.041 0.5,-0.388 1.397,-0.388 2.688,-0.388 2.451,0 2.952,0.284 3.532,0.982 0.448,0.594 0.87,1.525 1.186,2.351 z"
         style="fill:#8a1f03;fill-opacity:1;fill-rule:nonzero;stroke:#8a1f03;stroke-width:0.124;stroke-linecap:butt;stroke-linejoin:miter;stroke-miterlimit:4;stroke-dasharray:none;stroke-opacity:1"
         transform="matrix(1.3333333,0,0,-1.3333333,104.61773,349.1176)"
         clip-path="url(#clipPath590)" />
      <path
         id="path591"
         d="m 0,0 v 0.31 c 2.056,0.155 2.267,0.388 2.267,2.61 v 10.906 c 0,2.222 -0.211,2.455 -2.267,2.61 v 0.31 h 6.616 v -0.31 C 4.534,16.281 4.323,16.048 4.323,13.826 V 2.92 c 0,-2.222 0.211,-2.455 2.293,-2.61 V 0 Z"
         style="fill:#8a1f03;fill-opacity:1;fill-rule:nonzero;stroke:#8a1f03;stroke-width:0.124;stroke-linecap:butt;stroke-linejoin:miter;stroke-miterlimit:4;stroke-dasharray:none;stroke-opacity:1"
         transform="matrix(1.3333333,0,0,-1.3333333,104.93387,354.1828)"
         clip-path="url(#clipPath592)" />
      <path
         id="path593"
         d="m 0,0 c -0.53,-0.056 -0.688,-0.151 -0.724,-0.534 -0.017,-0.199 -0.044,-0.558 -0.044,-1.267 v -0.797 c 0,-0.892 -0.141,-1.554 -0.627,-2.032 -0.379,-0.367 -0.935,-0.534 -1.526,-0.534 -0.486,0 -0.98,0.112 -1.325,0.359 -0.547,0.382 -0.767,0.98 -0.767,1.856 v 2.08 c 0,0.781 -0.071,0.805 -0.706,0.869 V 0.096 H -3.61 V 0 c -0.644,-0.032 -0.715,-0.104 -0.715,-0.869 v -1.88 c 0,-1.052 0.336,-2.088 1.677,-2.088 1.465,0 1.66,1.275 1.66,2.383 v 0.661 c 0,0.701 -0.018,1.06 -0.062,1.307 -0.044,0.343 -0.168,0.43 -0.777,0.486 V 0.096 H 0 Z"
         style="fill:#8a1f03;fill-opacity:1;fill-rule:nonzero;stroke:#8a1f03;stroke-width:0.155;stroke-linecap:butt;stroke-linejoin:miter;stroke-miterlimit:4;stroke-dasharray:none;stroke-opacity:1"
         transform="matrix(1.3333333,0,0,-1.3333333,58.7248,358.25173)"
         clip-path="url(#clipPath594)" />
      <path
         id="path595"
         d="m 0,0 c -0.486,-0.04 -0.653,-0.127 -0.688,-0.542 -0.018,-0.247 -0.036,-0.582 -0.036,-1.291 v -3.331 h -0.141 l -3.857,4.311 H -4.74 v -2.175 c 0,-0.765 0.027,-1.148 0.053,-1.363 0.044,-0.454 0.212,-0.534 0.795,-0.582 v -0.095 h -1.863 v 0.095 c 0.512,0.04 0.698,0.128 0.742,0.582 0.017,0.215 0.053,0.598 0.053,1.363 v 1.833 c 0,0.613 -0.027,0.693 -0.186,0.868 -0.203,0.215 -0.3,0.287 -0.759,0.327 v 0.096 h 1.2 L -0.962,-4 h 0.018 v 2.175 c 0,0.701 -0.018,1.044 -0.045,1.275 C -1.033,-0.135 -1.2,-0.04 -1.809,0 V 0.096 H 0 Z"
         style="fill:#8a1f03;fill-opacity:1;fill-rule:nonzero;stroke:#8a1f03;stroke-width:0.155;stroke-linecap:butt;stroke-linejoin:miter;stroke-miterlimit:4;stroke-dasharray:none;stroke-opacity:1"
         transform="matrix(1.3333333,0,0,-1.3333333,67.0456,358.25173)"
         clip-path="url(#clipPath596)" />
      <path
         id="path597"
         d="M 0,0 V 0.096 C 0.688,0.143 0.759,0.215 0.759,0.9 V 4.263 C 0.759,4.949 0.688,5.02 0,5.068 V 5.164 H 2.215 V 5.068 C 1.518,5.02 1.447,4.949 1.447,4.263 V 0.9 c 0,-0.685 0.071,-0.757 0.768,-0.804 V 0 Z"
         style="fill:#8a1f03;fill-opacity:1;fill-rule:nonzero;stroke:#8a1f03;stroke-width:0.155;stroke-linecap:butt;stroke-linejoin:miter;stroke-miterlimit:4;stroke-dasharray:none;stroke-opacity:1"
         transform="matrix(1.3333333,0,0,-1.3333333,67.5168,365.00933)"
         clip-path="url(#clipPath598)" />
      <path
         id="path599"
         d="M 0,0 C -0.583,-0.064 -0.688,-0.143 -1.006,-0.853 -1.289,-1.458 -2.207,-3.514 -2.869,-5.188 H -3.01 c -0.591,1.49 -1.218,3.028 -1.792,4.391 -0.282,0.685 -0.379,0.757 -0.9,0.797 v 0.096 h 2.039 V 0 c -0.583,-0.064 -0.644,-0.135 -0.512,-0.494 0.212,-0.574 0.856,-2.144 1.492,-3.626 h 0.026 c 0.327,0.733 1.015,2.343 1.421,3.498 0.168,0.471 0.115,0.534 -0.582,0.622 V 0.096 H 0 Z"
         style="fill:#8a1f03;fill-opacity:1;fill-rule:nonzero;stroke:#8a1f03;stroke-width:0.155;stroke-linecap:butt;stroke-linejoin:miter;stroke-miterlimit:4;stroke-dasharray:none;stroke-opacity:1"
         transform="matrix(1.3333333,0,0,-1.3333333,78.544,358.25173)"
         clip-path="url(#clipPath600)" />
      <path
         id="path601"
         d="m 0,0 c -0.053,-0.263 -0.212,-0.884 -0.3,-1.171 h -4.025 v 0.095 c 0.768,0.056 0.839,0.12 0.839,0.805 v 3.315 c 0,0.757 -0.071,0.789 -0.707,0.853 v 0.095 h 3.716 c 0,-0.263 0.036,-0.773 0.062,-1.043 L -0.538,2.925 c -0.08,0.318 -0.168,0.51 -0.283,0.645 -0.167,0.207 -0.406,0.255 -1.121,0.255 h -0.591 c -0.247,0 -0.265,-0.032 -0.265,-0.247 V 1.594 h 0.874 c 0.812,0 0.856,0.103 0.953,0.605 h 0.106 V 0.757 H -0.971 C -1.068,1.299 -1.13,1.395 -1.906,1.395 h -0.892 v -1.65 c 0,-0.375 0.053,-0.534 0.194,-0.629 0.168,-0.12 0.468,-0.12 0.9,-0.12 0.821,0 0.989,0.088 1.183,0.303 0.15,0.183 0.292,0.47 0.397,0.725 z"
         style="fill:#8a1f03;fill-opacity:1;fill-rule:nonzero;stroke:#8a1f03;stroke-width:0.155;stroke-linecap:butt;stroke-linejoin:miter;stroke-miterlimit:4;stroke-dasharray:none;stroke-opacity:1"
         transform="matrix(1.3333333,0,0,-1.3333333,84.463867,363.44747)"
         clip-path="url(#clipPath602)" />
      <path
         id="path603"
         d="m 0,0 c 0.441,0 0.724,0.048 0.962,0.215 0.327,0.239 0.485,0.574 0.485,1.052 0,0.877 -0.564,1.267 -1.244,1.267 -0.23,0 -0.424,-0.024 -0.485,-0.056 C -0.353,2.439 -0.38,2.367 -0.38,2.104 V 0 Z m 3.195,-2.534 c -0.07,0 -0.15,0 -0.221,0.008 -0.759,0.032 -1.103,0.239 -1.465,0.709 -0.317,0.414 -0.635,0.917 -0.918,1.315 -0.167,0.247 -0.309,0.359 -0.75,0.359 H -0.38 v -1.435 c 0,-0.685 0.071,-0.757 0.742,-0.805 v -0.095 h -2.18 v 0.095 c 0.679,0.048 0.75,0.12 0.75,0.805 v 3.395 c 0,0.677 -0.071,0.717 -0.715,0.773 v 0.096 h 2.065 c 0.654,0 1.068,-0.072 1.395,-0.279 0.318,-0.2 0.538,-0.542 0.538,-1.012 0,-0.678 -0.503,-1.1 -1.156,-1.355 0.159,-0.287 0.538,-0.829 0.803,-1.18 0.309,-0.406 0.548,-0.685 0.751,-0.9 0.256,-0.279 0.397,-0.359 0.6,-0.406 z"
         style="fill:#8a1f03;fill-opacity:1;fill-rule:nonzero;stroke:#8a1f03;stroke-width:0.155;stroke-linecap:butt;stroke-linejoin:miter;stroke-miterlimit:4;stroke-dasharray:none;stroke-opacity:1"
         transform="matrix(1.3333333,0,0,-1.3333333,87.241733,361.70493)"
         clip-path="url(#clipPath604)" />
      <path
         id="path605"
         d="m 0,0 c -0.168,0.534 -0.486,1.06 -1.227,1.06 -0.671,0 -1.006,-0.43 -1.006,-0.94 0,-0.614 0.441,-0.893 1.138,-1.244 0.689,-0.342 1.466,-0.701 1.466,-1.586 0,-0.765 -0.742,-1.458 -1.88,-1.458 -0.362,0 -0.627,0.072 -0.821,0.12 -0.238,0.071 -0.371,0.119 -0.459,0.159 -0.062,0.127 -0.194,0.964 -0.212,1.195 l 0.115,0.04 c 0.123,-0.518 0.565,-1.331 1.509,-1.331 0.689,0 1.086,0.423 1.086,1.02 0,0.598 -0.486,0.885 -1.13,1.228 -0.494,0.263 -1.43,0.669 -1.43,1.57 0,0.741 0.653,1.386 1.748,1.386 0.503,0 0.829,-0.111 1.068,-0.167 0.026,-0.287 0.079,-0.598 0.15,-1.028 z"
         style="fill:#8a1f03;fill-opacity:1;fill-rule:nonzero;stroke:#8a1f03;stroke-width:0.155;stroke-linecap:butt;stroke-linejoin:miter;stroke-miterlimit:4;stroke-dasharray:none;stroke-opacity:1"
         transform="matrix(1.3333333,0,0,-1.3333333,95.691867,359.60107)"
         clip-path="url(#clipPath606)" />
      <path
         id="path607"
         d="M 0,0 V 0.096 C 0.688,0.143 0.759,0.215 0.759,0.9 V 4.263 C 0.759,4.949 0.688,5.02 0,5.068 V 5.164 H 2.215 V 5.068 C 1.518,5.02 1.447,4.949 1.447,4.263 V 0.9 c 0,-0.685 0.071,-0.757 0.768,-0.804 V 0 Z"
         style="fill:#8a1f03;fill-opacity:1;fill-rule:nonzero;stroke:#8a1f03;stroke-width:0.155;stroke-linecap:butt;stroke-linejoin:miter;stroke-miterlimit:4;stroke-dasharray:none;stroke-opacity:1"
         transform="matrix(1.3333333,0,0,-1.3333333,96.762933,365.00933)"
         clip-path="url(#clipPath608)" />
      <path
         id="path609"
         d="m 0,0 c -0.088,0.351 -0.176,0.55 -0.256,0.693 -0.132,0.216 -0.309,0.295 -1.077,0.295 h -0.6 v -4.112 c 0,-0.621 0.062,-0.749 0.838,-0.789 v -0.095 h -2.338 v 0.095 c 0.741,0.04 0.812,0.168 0.812,0.789 V 0.988 H -3.089 C -3.963,0.988 -4.157,0.909 -4.281,0.685 -4.369,0.534 -4.448,0.327 -4.537,-0.008 H -4.66 c 0.053,0.446 0.088,0.956 0.106,1.363 h 0.088 C -4.36,1.171 -4.219,1.156 -3.989,1.156 h 3.486 c 0.221,0 0.309,0.047 0.441,0.199 h 0.097 c 0,-0.335 0.036,-0.893 0.089,-1.339 z"
         style="fill:#8a1f03;fill-opacity:1;fill-rule:nonzero;stroke:#8a1f03;stroke-width:0.155;stroke-linecap:butt;stroke-linejoin:miter;stroke-miterlimit:4;stroke-dasharray:none;stroke-opacity:1"
         transform="matrix(1.3333333,0,0,-1.3333333,106.58987,359.66493)"
         clip-path="url(#clipPath610)" />
      <path
         id="path611"
         d="m 0,0 c -0.6,-0.072 -0.644,-0.159 -0.9,-0.51 -0.495,-0.693 -0.804,-1.195 -1.218,-1.913 -0.15,-0.255 -0.159,-0.35 -0.159,-0.573 V -4.16 c 0,-0.693 0.071,-0.765 0.821,-0.813 v -0.095 h -2.295 v 0.095 c 0.715,0.048 0.785,0.12 0.785,0.813 v 1.156 c 0,0.159 -0.026,0.247 -0.167,0.494 -0.212,0.382 -0.539,0.948 -1.068,1.801 -0.38,0.613 -0.424,0.685 -0.936,0.709 v 0.096 h 1.968 V 0 c -0.582,-0.08 -0.591,-0.167 -0.459,-0.398 0.406,-0.734 0.865,-1.491 1.236,-2.112 0.318,0.526 0.874,1.458 1.13,1.96 0.212,0.423 0.141,0.486 -0.512,0.55 V 0.096 H 0 Z"
         style="fill:#8a1f03;fill-opacity:1;fill-rule:nonzero;stroke:#8a1f03;stroke-width:0.155;stroke-linecap:butt;stroke-linejoin:miter;stroke-miterlimit:4;stroke-dasharray:none;stroke-opacity:1"
         transform="matrix(1.3333333,0,0,-1.3333333,113.71013,358.25173)"
         clip-path="url(#clipPath612)" />
      <path
         id="path613"
         d="m 0,0 c -0.084,0 -0.143,-0.01 -0.209,-0.035 -0.227,-0.076 -0.658,-0.494 -0.658,-1.325 0,-0.388 0.192,-0.63 0.49,-0.63 0.066,0 0.114,0.006 0.174,0.025 0.34,0.101 0.669,0.676 0.663,1.341 C 0.454,-0.217 0.263,0 0.006,0 Z m 0.168,0.136 c 0.46,0 0.735,-0.287 0.735,-0.735 0,-0.444 -0.228,-0.942 -0.622,-1.224 -0.239,-0.167 -0.562,-0.313 -0.867,-0.313 -0.526,0 -0.729,0.353 -0.729,0.751 0,0.645 0.418,1.158 0.909,1.37 0.197,0.091 0.424,0.151 0.567,0.151 z"
         style="fill:#8a1f03;fill-opacity:1;fill-rule:nonzero;stroke:#8a1f03;stroke-width:0.096;stroke-linecap:butt;stroke-linejoin:miter;stroke-miterlimit:4;stroke-dasharray:none;stroke-opacity:1"
         transform="matrix(1.3333333,0,0,-1.3333333,53.243333,369.07867)"
         clip-path="url(#clipPath614)" />
      <path
         id="path615"
         d="M 0,0 C 0.102,0.433 0.251,0.846 0.526,1.098 0.777,1.34 1.124,1.506 1.363,1.506 1.542,1.506 1.674,1.385 1.668,1.31 1.668,1.234 1.584,1.153 1.536,1.123 1.495,1.098 1.447,1.098 1.411,1.138 1.297,1.259 1.172,1.315 1.046,1.315 0.795,1.315 0.61,1.018 0.407,0 H 1.058 L 0.945,-0.096 0.371,-0.146 C 0.257,-0.71 0.191,-1.043 0.03,-1.697 -0.167,-2.539 -0.323,-2.841 -0.705,-3.183 -0.951,-3.4 -1.196,-3.48 -1.357,-3.48 c -0.162,0 -0.353,0.075 -0.353,0.186 0,0.055 0.066,0.136 0.15,0.186 0.041,0.026 0.066,0.021 0.089,0 0.09,-0.075 0.287,-0.131 0.401,-0.131 0.101,0 0.209,0.046 0.275,0.111 0.084,0.081 0.209,0.297 0.412,1.284 0.162,0.781 0.246,1.199 0.353,1.708 H -0.508 L -0.514,-0.106 -0.353,0 Z"
         style="fill:#8a1f03;fill-opacity:1;fill-rule:nonzero;stroke:#8a1f03;stroke-width:0.096;stroke-linecap:butt;stroke-linejoin:miter;stroke-miterlimit:4;stroke-dasharray:none;stroke-opacity:1"
         transform="matrix(1.3333333,0,0,-1.3333333,55.435333,369.01813)"
         clip-path="url(#clipPath616)" />
      <path
         id="path617"
         d="m 0,0 c 0.101,-0.032 0.311,-0.064 0.537,-0.064 0.49,0 1.136,0.218 1.136,1.111 0,0.719 -0.506,1.046 -1.175,1.046 -0.21,0 -0.366,-0.032 -0.412,-0.07 C 0.023,1.984 0,1.894 0,1.663 Z m 0.607,2.209 c 0.529,0 0.98,-0.077 1.268,-0.257 0.304,-0.193 0.491,-0.488 0.491,-0.899 0,-0.835 -0.763,-1.22 -1.494,-1.297 -0.102,-0.013 -0.234,-0.013 -0.304,0 L 0,-0.115 v -1.13 c 0,-0.54 0.062,-0.585 0.685,-0.63 v -0.077 h -1.93 v 0.077 c 0.576,0.045 0.638,0.097 0.638,0.642 v 2.729 c 0,0.559 -0.054,0.604 -0.599,0.642 v 0.071 z"
         style="fill:#8a1f03;fill-opacity:1;fill-rule:nonzero;stroke:#8a1f03;stroke-width:0.093;stroke-linecap:butt;stroke-linejoin:miter;stroke-miterlimit:4;stroke-dasharray:none;stroke-opacity:1"
         transform="matrix(1.3333333,0,0,-1.3333333,60.752,370.37453)"
         clip-path="url(#clipPath618)" />
      <path
         id="path619"
         d="M 0,0 C 0.179,0.27 0.537,0.681 0.903,0.681 1.144,0.681 1.307,0.52 1.307,0.385 1.307,0.282 1.214,0.186 1.082,0.122 0.996,0.09 0.934,0.096 0.895,0.128 0.778,0.224 0.693,0.27 0.56,0.27 0.381,0.27 0.187,0.122 -0.016,-0.231 v -1.303 c 0,-0.444 0.039,-0.489 0.623,-0.527 v -0.077 h -1.689 v 0.077 c 0.444,0.038 0.506,0.083 0.506,0.527 v 1.406 c 0,0.423 -0.039,0.455 -0.467,0.507 V 0.436 C -0.7,0.482 -0.389,0.559 -0.016,0.7 V 0 Z"
         style="fill:#8a1f03;fill-opacity:1;fill-rule:nonzero;stroke:#8a1f03;stroke-width:0.093;stroke-linecap:butt;stroke-linejoin:miter;stroke-miterlimit:4;stroke-dasharray:none;stroke-opacity:1"
         transform="matrix(1.3333333,0,0,-1.3333333,65.669067,370.126)"
         clip-path="url(#clipPath620)" />
      <path
         id="path621"
         d="m 0,0 c 0.171,0 0.311,-0.115 0.311,-0.27 0,-0.147 -0.14,-0.269 -0.319,-0.269 -0.163,0 -0.311,0.122 -0.311,0.263 0,0.161 0.148,0.276 0.311,0.276 z m -0.77,-4.115 v 0.077 c 0.459,0.038 0.521,0.083 0.521,0.526 v 1.406 c 0,0.398 -0.039,0.43 -0.451,0.501 v 0.071 c 0.311,0.045 0.669,0.122 1.011,0.25 V -3.512 C 0.311,-3.955 0.366,-4 0.84,-4.038 v -0.077 z"
         style="fill:#8a1f03;fill-opacity:1;fill-rule:nonzero;stroke:#8a1f03;stroke-width:0.093;stroke-linecap:butt;stroke-linejoin:miter;stroke-miterlimit:4;stroke-dasharray:none;stroke-opacity:1"
         transform="matrix(1.3333333,0,0,-1.3333333,68.7604,367.4896)"
         clip-path="url(#clipPath622)" />
      <path
         id="path623"
         d="M 0,0 V 0.077 C 0.475,0.115 0.545,0.16 0.545,0.674 v 1.079 c 0,0.417 -0.156,0.751 -0.708,0.751 -0.296,0 -0.623,-0.167 -0.833,-0.321 V 0.604 c 0,-0.444 0.055,-0.489 0.49,-0.527 V 0 h -1.618 v 0.077 c 0.506,0.038 0.568,0.083 0.568,0.533 v 1.393 c 0,0.398 -0.039,0.424 -0.444,0.507 v 0.065 c 0.311,0.051 0.654,0.128 1.004,0.263 v -0.52 c 0.156,0.096 0.35,0.211 0.545,0.314 0.225,0.116 0.381,0.186 0.599,0.186 0.607,0 0.957,-0.346 0.957,-0.937 V 0.61 c 0,-0.45 0.039,-0.495 0.451,-0.533 V 0 Z"
         style="fill:#8a1f03;fill-opacity:1;fill-rule:nonzero;stroke:#8a1f03;stroke-width:0.093;stroke-linecap:butt;stroke-linejoin:miter;stroke-miterlimit:4;stroke-dasharray:none;stroke-opacity:1"
         transform="matrix(1.3333333,0,0,-1.3333333,73.044933,372.97667)"
         clip-path="url(#clipPath624)" />
      <path
         id="path625"
         d="m 0,0 c -0.335,-0.366 -0.809,-0.661 -1.253,-0.661 -0.926,0 -1.486,0.635 -1.486,1.29 0,0.482 0.233,0.905 0.77,1.252 0.374,0.244 0.825,0.353 1.098,0.353 h 0.007 c 0.273,0 0.522,-0.083 0.646,-0.173 0.086,-0.064 0.117,-0.116 0.117,-0.18 0,-0.122 -0.14,-0.225 -0.21,-0.225 -0.047,0 -0.07,0.013 -0.156,0.078 -0.202,0.16 -0.459,0.25 -0.762,0.25 -0.514,0 -0.965,-0.302 -0.965,-1.034 0,-0.931 0.77,-1.232 1.19,-1.232 0.343,0 0.592,0.064 0.942,0.353 z"
         style="fill:#8a1f03;fill-opacity:1;fill-rule:nonzero;stroke:#8a1f03;stroke-width:0.093;stroke-linecap:butt;stroke-linejoin:miter;stroke-miterlimit:4;stroke-dasharray:none;stroke-opacity:1"
         transform="matrix(1.3333333,0,0,-1.3333333,78.8232,372.19787)"
         clip-path="url(#clipPath626)" />
      <path
         id="path627"
         d="m 0,0 c -0.342,0 -0.7,-0.289 -0.794,-0.802 0.452,0 0.887,0 1.346,0.012 0.102,0 0.148,0.039 0.148,0.11 C 0.708,-0.347 0.49,0 0.008,0 Z M 1.284,-2.087 C 0.841,-2.6 0.296,-2.729 0.093,-2.729 c -0.941,0 -1.47,0.63 -1.47,1.342 0,0.43 0.179,0.803 0.498,1.092 0.311,0.276 0.723,0.462 1.097,0.462 h 0.008 c 0.622,0 1.081,-0.462 1.081,-0.886 0,-0.103 -0.039,-0.135 -0.163,-0.16 -0.117,-0.02 -1.035,-0.078 -1.977,-0.103 -0.015,-1.002 0.646,-1.362 1.206,-1.362 0.265,0 0.553,0.091 0.849,0.322 z"
         style="fill:#8a1f03;fill-opacity:1;fill-rule:nonzero;stroke:#8a1f03;stroke-width:0.093;stroke-linecap:butt;stroke-linejoin:miter;stroke-miterlimit:4;stroke-dasharray:none;stroke-opacity:1"
         transform="matrix(1.3333333,0,0,-1.3333333,81.125867,369.44133)"
         clip-path="url(#clipPath628)" />
      <path
         id="path629"
         d="m 0,0 c -0.047,-0.212 -0.187,-0.713 -0.264,-0.944 h -3.549 v 0.077 c 0.677,0.045 0.739,0.096 0.739,0.649 v 2.671 c 0,0.609 -0.062,0.635 -0.622,0.686 v 0.077 h 3.276 c 0,-0.211 0.031,-0.622 0.054,-0.841 L -0.475,2.356 c -0.07,0.257 -0.148,0.411 -0.249,0.52 -0.148,0.167 -0.358,0.206 -0.988,0.206 h -0.521 c -0.218,0 -0.234,-0.026 -0.234,-0.199 V 1.284 h 0.771 c 0.716,0 0.755,0.084 0.84,0.488 h 0.094 V 0.61 h -0.094 c -0.085,0.437 -0.14,0.514 -0.825,0.514 h -0.786 v -1.329 c 0,-0.302 0.047,-0.431 0.172,-0.508 0.147,-0.096 0.412,-0.096 0.793,-0.096 0.724,0 0.872,0.071 1.043,0.244 0.132,0.148 0.257,0.379 0.35,0.584 z"
         style="fill:#8a1f03;fill-opacity:1;fill-rule:nonzero;stroke:#8a1f03;stroke-width:0.093;stroke-linecap:butt;stroke-linejoin:miter;stroke-miterlimit:4;stroke-dasharray:none;stroke-opacity:1"
         transform="matrix(1.3333333,0,0,-1.3333333,89.860933,371.71827)"
         clip-path="url(#clipPath630)" />
      <path
         id="path631"
         d="m 0,0 c -0.179,0.244 -0.49,0.347 -0.794,0.347 -0.412,0 -1.019,-0.296 -1.019,-1.227 0,-0.77 0.552,-1.175 1.081,-1.175 0.273,0 0.561,0.11 0.732,0.225 z M 1.113,-2.151 C 0.934,-2.177 0.405,-2.254 0,-2.388 v 0.43 l -0.459,-0.231 c -0.327,-0.161 -0.506,-0.199 -0.615,-0.199 -0.591,0 -1.377,0.462 -1.377,1.335 0,0.86 0.895,1.56 1.922,1.56 0.132,0 0.334,-0.006 0.529,-0.064 V 1.547 C 0,1.958 -0.039,2.003 -0.568,2.035 V 2.093 C -0.202,2.132 0.28,2.234 0.56,2.318 V -1.65 c 0,-0.328 0.031,-0.379 0.319,-0.411 l 0.234,-0.026 z"
         style="fill:#8a1f03;fill-opacity:1;fill-rule:nonzero;stroke:#8a1f03;stroke-width:0.093;stroke-linecap:butt;stroke-linejoin:miter;stroke-miterlimit:4;stroke-dasharray:none;stroke-opacity:1"
         transform="matrix(1.3333333,0,0,-1.3333333,93.439733,369.89493)"
         clip-path="url(#clipPath632)" />
      <path
         id="path633"
         d="M 0,0 C -0.381,-0.045 -0.428,-0.135 -0.576,-0.462 -0.778,-0.899 -1.167,-1.888 -1.51,-2.741 h -0.124 c -0.28,0.654 -0.615,1.303 -0.957,2.022 -0.311,-0.687 -0.607,-1.316 -0.903,-2.022 h -0.124 c -0.288,0.777 -0.599,1.547 -0.918,2.33 -0.133,0.334 -0.179,0.373 -0.537,0.411 v 0.077 h 1.517 V 0 c -0.49,-0.064 -0.514,-0.109 -0.405,-0.398 0.187,-0.513 0.397,-1.027 0.631,-1.573 h 0.015 c 0.273,0.623 0.568,1.297 0.872,2.016 h 0.109 c 0.288,-0.668 0.606,-1.342 0.949,-2.054 h 0.016 c 0.186,0.513 0.389,1.046 0.544,1.573 0.094,0.327 0.039,0.366 -0.467,0.436 V 0.077 H 0 Z"
         style="fill:#8a1f03;fill-opacity:1;fill-rule:nonzero;stroke:#8a1f03;stroke-width:0.093;stroke-linecap:butt;stroke-linejoin:miter;stroke-miterlimit:4;stroke-dasharray:none;stroke-opacity:1"
         transform="matrix(1.3333333,0,0,-1.3333333,101.39667,369.42427)"
         clip-path="url(#clipPath634)" />
      <path
         id="path635"
         d="m 0,0 c -0.148,-0.071 -0.514,-0.205 -0.685,-0.276 -0.288,-0.115 -0.459,-0.237 -0.459,-0.482 0,-0.34 0.304,-0.52 0.568,-0.52 0.171,0 0.42,0.084 0.576,0.219 z m 0.56,-1.605 c -0.132,0 -0.296,0.051 -0.381,0.128 -0.086,0.071 -0.132,0.174 -0.171,0.289 -0.273,-0.16 -0.693,-0.417 -0.864,-0.417 -0.545,0 -0.895,0.385 -0.895,0.732 0,0.302 0.187,0.475 0.584,0.591 C -0.739,-0.16 -0.202,0 0,0.129 v 0.16 C 0,0.803 -0.249,1.066 -0.654,1.066 -0.794,1.066 -0.91,1.021 -0.988,0.944 -1.082,0.861 -1.152,0.725 -1.222,0.52 -1.253,0.417 -1.307,0.379 -1.408,0.379 c -0.125,0 -0.296,0.109 -0.296,0.244 0,0.077 0.078,0.141 0.218,0.225 0.225,0.134 0.739,0.372 1.12,0.443 0.21,0 0.42,-0.058 0.576,-0.161 C 0.474,0.937 0.552,0.681 0.552,0.334 v -1.226 c 0,-0.264 0.133,-0.366 0.281,-0.366 0.101,0 0.186,0.025 0.256,0.07 l 0.047,-0.09 z"
         style="fill:#8a1f03;fill-opacity:1;fill-rule:nonzero;stroke:#8a1f03;stroke-width:0.093;stroke-linecap:butt;stroke-linejoin:miter;stroke-miterlimit:4;stroke-dasharray:none;stroke-opacity:1"
         transform="matrix(1.3333333,0,0,-1.3333333,103.74067,370.93947)"
         clip-path="url(#clipPath636)" />
      <path
         id="path637"
         d="M 0,0 C 0.179,0.27 0.537,0.681 0.903,0.681 1.144,0.681 1.307,0.52 1.307,0.385 1.307,0.282 1.214,0.186 1.082,0.122 0.996,0.09 0.934,0.096 0.895,0.128 0.778,0.224 0.693,0.27 0.56,0.27 0.381,0.27 0.187,0.122 -0.015,-0.231 v -1.303 c 0,-0.444 0.038,-0.489 0.622,-0.527 v -0.077 h -1.689 v 0.077 c 0.444,0.038 0.506,0.083 0.506,0.527 v 1.406 c 0,0.423 -0.039,0.455 -0.467,0.507 V 0.436 C -0.7,0.482 -0.389,0.559 -0.015,0.7 V 0 Z"
         style="fill:#8a1f03;fill-opacity:1;fill-rule:nonzero;stroke:#8a1f03;stroke-width:0.093;stroke-linecap:butt;stroke-linejoin:miter;stroke-miterlimit:4;stroke-dasharray:none;stroke-opacity:1"
         transform="matrix(1.3333333,0,0,-1.3333333,106.96667,370.126)"
         clip-path="url(#clipPath638)" />
      <path
         id="path639"
         d="m 0,0 c -0.179,0.244 -0.49,0.347 -0.794,0.347 -0.412,0 -1.019,-0.296 -1.019,-1.227 0,-0.77 0.552,-1.175 1.082,-1.175 0.272,0 0.56,0.11 0.731,0.225 z M 1.113,-2.151 C 0.934,-2.177 0.405,-2.254 0,-2.388 v 0.43 l -0.459,-0.231 c -0.327,-0.161 -0.506,-0.199 -0.615,-0.199 -0.591,0 -1.377,0.462 -1.377,1.335 0,0.86 0.895,1.56 1.922,1.56 0.132,0 0.335,-0.006 0.529,-0.064 V 1.547 C 0,1.958 -0.039,2.003 -0.568,2.035 V 2.093 C -0.202,2.132 0.28,2.234 0.56,2.318 V -1.65 c 0,-0.328 0.031,-0.379 0.319,-0.411 l 0.234,-0.026 z"
         style="fill:#8a1f03;fill-opacity:1;fill-rule:nonzero;stroke:#8a1f03;stroke-width:0.093;stroke-linecap:butt;stroke-linejoin:miter;stroke-miterlimit:4;stroke-dasharray:none;stroke-opacity:1"
         transform="matrix(1.3333333,0,0,-1.3333333,111.79053,369.89493)"
         clip-path="url(#clipPath640)" />
      <path
         id="path641"
         d="m 0,0 v 0.176 c 1.17,0.088 1.29,0.22 1.29,1.482 V 7.85 C 1.29,9.112 1.17,9.244 0,9.332 V 9.508 H 3.764 V 9.332 C 2.58,9.244 2.46,9.112 2.46,7.85 V 1.658 C 2.46,0.396 2.58,0.264 3.764,0.176 V 0 Z"
         style="fill:#8a1f03;fill-opacity:1;fill-rule:nonzero;stroke:#8a1f03;stroke-width:0.124;stroke-linecap:butt;stroke-linejoin:miter;stroke-miterlimit:4;stroke-dasharray:none;stroke-opacity:1"
         transform="matrix(1.3333333,0,0,-1.3333333,51.521333,388.19093)"
         clip-path="url(#clipPath642)" />
      <path
         id="path643"
         d="m 0,0 c -0.285,0.983 -0.825,1.952 -2.085,1.952 -1.14,0 -1.709,-0.793 -1.709,-1.732 0,-1.13 0.749,-1.643 1.934,-2.289 1.17,-0.631 2.49,-1.291 2.49,-2.92 0,-1.408 -1.26,-2.685 -3.195,-2.685 -0.614,0 -1.064,0.132 -1.394,0.22 -0.405,0.132 -0.63,0.22 -0.78,0.294 -0.105,0.234 -0.33,1.775 -0.36,2.201 l 0.195,0.073 c 0.21,-0.954 0.96,-2.45 2.564,-2.45 1.17,0 1.845,0.777 1.845,1.878 0,1.1 -0.825,1.628 -1.92,2.259 -0.839,0.484 -2.429,1.233 -2.429,2.891 0,1.364 1.11,2.553 2.969,2.553 0.855,0 1.41,-0.206 1.815,-0.308 0.045,-0.528 0.135,-1.101 0.255,-1.893 z"
         style="fill:#8a1f03;fill-opacity:1;fill-rule:nonzero;stroke:#8a1f03;stroke-width:0.124;stroke-linecap:butt;stroke-linejoin:miter;stroke-miterlimit:4;stroke-dasharray:none;stroke-opacity:1"
         transform="matrix(1.3333333,0,0,-1.3333333,64.259067,378.23293)"
         clip-path="url(#clipPath644)" />
      <path
         id="path645"
         d="m 0,0 c -0.105,-0.367 -0.375,-1.658 -0.525,-2.172 h -6.449 v 0.177 c 1.17,0.088 1.29,0.22 1.29,1.511 v 6.177 c 0,1.306 -0.075,1.379 -1.2,1.467 v 0.176 h 3.555 V 7.16 C -4.394,7.072 -4.514,6.999 -4.514,5.693 v -6.06 c 0,-0.836 0.06,-1.144 0.315,-1.306 0.285,-0.161 0.765,-0.19 1.454,-0.19 0.975,0 1.47,0.088 1.8,0.469 0.27,0.323 0.525,0.778 0.735,1.438 z"
         style="fill:#8a1f03;fill-opacity:1;fill-rule:nonzero;stroke:#8a1f03;stroke-width:0.124;stroke-linecap:butt;stroke-linejoin:miter;stroke-miterlimit:4;stroke-dasharray:none;stroke-opacity:1"
         transform="matrix(1.3333333,0,0,-1.3333333,74.977067,385.2956)"
         clip-path="url(#clipPath646)" />
      <path
         id="path647"
         d="M 0,0 H -0.03 C -0.54,-1.262 -1.035,-2.597 -1.485,-3.786 H 1.32 Z m 1.53,-7.923 v 0.176 C 2.37,-7.63 2.595,-7.512 2.4,-6.896 2.22,-6.28 1.875,-5.37 1.44,-4.182 h -3.075 c -0.33,-0.91 -0.57,-1.643 -0.795,-2.318 -0.33,-0.983 -0.195,-1.145 0.945,-1.247 v -0.176 h -2.984 v 0.176 c 0.885,0.088 1.094,0.264 1.604,1.555 L 0.3,1.702 0.54,1.79 c 0.945,-2.641 1.905,-5.311 2.91,-8.011 0.479,-1.291 0.689,-1.438 1.589,-1.526 v -0.176 z"
         style="fill:#8a1f03;fill-opacity:1;fill-rule:nonzero;stroke:#8a1f03;stroke-width:0.124;stroke-linecap:butt;stroke-linejoin:miter;stroke-miterlimit:4;stroke-dasharray:none;stroke-opacity:1"
         transform="matrix(1.3333333,0,0,-1.3333333,80.7156,377.62653)"
         clip-path="url(#clipPath648)" />
      <path
         id="path649"
         d="M 0,0 C -0.825,-0.074 -1.11,-0.235 -1.17,-0.998 -1.2,-1.453 -1.23,-2.069 -1.23,-3.375 v -6.133 h -0.24 l -6.554,7.938 h -0.03 v -4.006 c 0,-1.408 0.045,-2.113 0.09,-2.509 0.075,-0.836 0.36,-0.983 1.35,-1.071 v -0.176 h -3.164 v 0.176 c 0.87,0.073 1.184,0.235 1.259,1.071 0.03,0.396 0.09,1.101 0.09,2.509 v 3.375 c 0,1.13 -0.045,1.277 -0.314,1.599 -0.346,0.397 -0.511,0.528 -1.29,0.602 v 0.176 h 2.039 l 6.359,-7.542 h 0.03 v 4.006 c 0,1.291 -0.03,1.922 -0.075,2.347 C -1.755,-0.249 -2.04,-0.074 -3.075,0 V 0.176 H 0 Z"
         style="fill:#8a1f03;fill-opacity:1;fill-rule:nonzero;stroke:#8a1f03;stroke-width:0.124;stroke-linecap:butt;stroke-linejoin:miter;stroke-miterlimit:4;stroke-dasharray:none;stroke-opacity:1"
         transform="matrix(1.3333333,0,0,-1.3333333,100.892,375.74827)"
         clip-path="url(#clipPath650)" />
      <path
         id="path651"
         d="m 0,0 c 0,-1.218 0.615,-1.409 1.515,-1.409 2.879,0 4.154,2.172 4.154,4.564 0,1.687 -0.615,3.081 -1.935,3.8 C 3.06,7.336 2.19,7.483 1.245,7.483 0.78,7.483 0.435,7.439 0.225,7.366 0.075,7.292 0,7.16 0,6.427 Z m 1.65,7.762 c 1.889,0 3.269,-0.396 4.139,-1.233 0.78,-0.733 1.26,-1.79 1.26,-3.154 0,-1.746 -0.69,-3.052 -1.785,-3.888 C 4.154,-1.364 2.58,-1.746 0.84,-1.746 h -3.375 v 0.176 c 1.23,0.088 1.35,0.22 1.35,1.482 v 6.192 c 0,1.32 -0.12,1.408 -1.23,1.497 v 0.161 z"
         style="fill:#8a1f03;fill-opacity:1;fill-rule:nonzero;stroke:#8a1f03;stroke-width:0.124;stroke-linecap:butt;stroke-linejoin:miter;stroke-miterlimit:4;stroke-dasharray:none;stroke-opacity:1"
         transform="matrix(1.3333333,0,0,-1.3333333,104.19107,385.86293)"
         clip-path="url(#clipPath652)" />
    </g>
  </g>
</svg>
